<svg fill="none" height="32" viewBox="0 0 32 32" width="32" xmlns="http://www.w3.org/2000/svg" xmlns:xlink="http://www.w3.org/1999/xlink"><filter id="a" color-interpolation-filters="sRGB" filterUnits="userSpaceOnUse" height="25.3404" width="25.3357" x="2.9" y="2.8"><feFlood flood-opacity="0" result="BackgroundImageFix"/><feBlend in="SourceGraphic" in2="BackgroundImageFix" mode="normal" result="shape"/><feColorMatrix in="SourceAlpha" result="hardAlpha" type="matrix" values="0 0 0 0 0 0 0 0 0 0 0 0 0 0 0 0 0 0 127 0"/><feOffset dx="-.1" dy=".1"/><feGaussianBlur stdDeviation=".2"/><feComposite in2="hardAlpha" k2="-1" k3="1" operator="arithmetic"/><feColorMatrix type="matrix" values="0 0 0 0 0.847059 0 0 0 0 1 0 0 0 0 1 0 0 0 1 0"/><feBlend in2="shape" mode="normal" result="effect1_innerShadow_18_15793"/><feColorMatrix in="SourceAlpha" result="hardAlpha" type="matrix" values="0 0 0 0 0 0 0 0 0 0 0 0 0 0 0 0 0 0 127 0"/><feOffset dx=".2" dy="-.2"/><feGaussianBlur stdDeviation=".2"/><feComposite in2="hardAlpha" k2="-1" k3="1" operator="arithmetic"/><feColorMatrix type="matrix" values="0 0 0 0 0 0 0 0 0 0 0 0 0 0 0 0 0 0 0.25 0"/><feBlend in2="effect1_innerShadow_18_15793" mode="normal" result="effect2_innerShadow_18_15793"/></filter><filter id="b" color-interpolation-filters="sRGB" filterUnits="userSpaceOnUse" height="11.64" width="11.64" x="4.19757" y="15.203"><feFlood flood-opacity="0" result="BackgroundImageFix"/><feBlend in="SourceGraphic" in2="BackgroundImageFix" mode="normal" result="shape"/><feGaussianBlur result="effect1_foregroundBlur_18_15793" stdDeviation=".25"/></filter><filter id="c" color-interpolation-filters="sRGB" filterUnits="userSpaceOnUse" height="1.83652" width="1.83646" x="10.5994" y="13.6048"><feFlood flood-opacity="0" result="BackgroundImageFix"/><feBlend in="SourceGraphic" in2="BackgroundImageFix" mode="normal" result="shape"/><feGaussianBlur result="effect1_foregroundBlur_18_15793" stdDeviation=".1"/></filter><filter id="d" color-interpolation-filters="sRGB" filterUnits="userSpaceOnUse" height="1.75449" width="1.75443" x="15.6404" y="18.6458"><feFlood flood-opacity="0" result="BackgroundImageFix"/><feBlend in="SourceGraphic" in2="BackgroundImageFix" mode="normal" result="shape"/><feGaussianBlur result="effect1_foregroundBlur_18_15793" stdDeviation=".1"/></filter><filter id="e" color-interpolation-filters="sRGB" filterUnits="userSpaceOnUse" height="2.81479" width="2.81479" x="13.6101" y="14.6157"><feFlood flood-opacity="0" result="BackgroundImageFix"/><feBlend in="SourceGraphic" in2="BackgroundImageFix" mode="normal" result="shape"/><feGaussianBlur result="effect1_foregroundBlur_18_15793" stdDeviation=".1"/></filter><filter id="f" color-interpolation-filters="sRGB" filterUnits="userSpaceOnUse" height="1.78894" width="1.78888" x="13.6231" y="11.6285"><feFlood flood-opacity="0" result="BackgroundImageFix"/><feBlend in="SourceGraphic" in2="BackgroundImageFix" mode="normal" result="shape"/><feGaussianBlur result="effect1_foregroundBlur_18_15793" stdDeviation=".125"/></filter><filter id="g" color-interpolation-filters="sRGB" filterUnits="userSpaceOnUse" height="1.78271" width="1.78271" x="19.6262" y="9.63159"><feFlood flood-opacity="0" result="BackgroundImageFix"/><feBlend in="SourceGraphic" in2="BackgroundImageFix" mode="normal" result="shape"/><feGaussianBlur result="effect1_foregroundBlur_18_15793" stdDeviation=".125"/></filter><filter id="h" color-interpolation-filters="sRGB" filterUnits="userSpaceOnUse" height="2.40234" width="2.40234" x="16.8164" y="10.8218"><feFlood flood-opacity="0" result="BackgroundImageFix"/><feBlend in="SourceGraphic" in2="BackgroundImageFix" mode="normal" result="shape"/><feGaussianBlur result="effect1_foregroundBlur_18_15793" stdDeviation=".125"/></filter><filter id="i" color-interpolation-filters="sRGB" filterUnits="userSpaceOnUse" height="2.40234" width="2.40234" x="16.8164" y="13.8218"><feFlood flood-opacity="0" result="BackgroundImageFix"/><feBlend in="SourceGraphic" in2="BackgroundImageFix" mode="normal" result="shape"/><feGaussianBlur result="effect1_foregroundBlur_18_15793" stdDeviation=".125"/></filter><filter id="j" color-interpolation-filters="sRGB" filterUnits="userSpaceOnUse" height="10.2" width="10.2" x="5.01758" y="15.8229"><feFlood flood-opacity="0" result="BackgroundImageFix"/><feBlend in="SourceGraphic" in2="BackgroundImageFix" mode="normal" result="shape"/><feColorMatrix in="SourceAlpha" result="hardAlpha" type="matrix" values="0 0 0 0 0 0 0 0 0 0 0 0 0 0 0 0 0 0 127 0"/><feOffset dx=".2" dy="-.2"/><feGaussianBlur stdDeviation=".25"/><feComposite in2="hardAlpha" k2="-1" k3="1" operator="arithmetic"/><feColorMatrix type="matrix" values="0 0 0 0 0.725 0 0 0 0 0.117813 0 0 0 0 0.394506 0 0 0 1 0"/><feBlend in2="shape" mode="normal" result="effect1_innerShadow_18_15793"/></filter><filter id="k" color-interpolation-filters="sRGB" filterUnits="userSpaceOnUse" height="1.2" width="1.2" x="20.0176" y="9.82295"><feFlood flood-opacity="0" result="BackgroundImageFix"/><feBlend in="SourceGraphic" in2="BackgroundImageFix" mode="normal" result="shape"/><feColorMatrix in="SourceAlpha" result="hardAlpha" type="matrix" values="0 0 0 0 0 0 0 0 0 0 0 0 0 0 0 0 0 0 127 0"/><feOffset dx=".2" dy="-.2"/><feGaussianBlur stdDeviation=".25"/><feComposite in2="hardAlpha" k2="-1" k3="1" operator="arithmetic"/><feColorMatrix type="matrix" values="0 0 0 0 0.725 0 0 0 0 0.117813 0 0 0 0 0.394506 0 0 0 1 0"/><feBlend in2="shape" mode="normal" result="effect1_innerShadow_18_15793"/></filter><filter id="l" color-interpolation-filters="sRGB" filterUnits="userSpaceOnUse" height="1.2" width="1.2" x="14.0176" y="11.8229"><feFlood flood-opacity="0" result="BackgroundImageFix"/><feBlend in="SourceGraphic" in2="BackgroundImageFix" mode="normal" result="shape"/><feColorMatrix in="SourceAlpha" result="hardAlpha" type="matrix" values="0 0 0 0 0 0 0 0 0 0 0 0 0 0 0 0 0 0 127 0"/><feOffset dx=".2" dy="-.2"/><feGaussianBlur stdDeviation=".25"/><feComposite in2="hardAlpha" k2="-1" k3="1" operator="arithmetic"/><feColorMatrix type="matrix" values="0 0 0 0 0.725 0 0 0 0 0.117813 0 0 0 0 0.394506 0 0 0 1 0"/><feBlend in2="shape" mode="normal" result="effect1_innerShadow_18_15793"/></filter><filter id="m" color-interpolation-filters="sRGB" filterUnits="userSpaceOnUse" height="1.2" width="1.2" x="16.0176" y="18.8229"><feFlood flood-opacity="0" result="BackgroundImageFix"/><feBlend in="SourceGraphic" in2="BackgroundImageFix" mode="normal" result="shape"/><feColorMatrix in="SourceAlpha" result="hardAlpha" type="matrix" values="0 0 0 0 0 0 0 0 0 0 0 0 0 0 0 0 0 0 127 0"/><feOffset dx=".2" dy="-.2"/><feGaussianBlur stdDeviation=".25"/><feComposite in2="hardAlpha" k2="-1" k3="1" operator="arithmetic"/><feColorMatrix type="matrix" values="0 0 0 0 0.725 0 0 0 0 0.117813 0 0 0 0 0.394506 0 0 0 1 0"/><feBlend in2="shape" mode="normal" result="effect1_innerShadow_18_15793"/></filter><filter id="n" color-interpolation-filters="sRGB" filterUnits="userSpaceOnUse" height="1.2" width="1.2" x="11.0176" y="13.8229"><feFlood flood-opacity="0" result="BackgroundImageFix"/><feBlend in="SourceGraphic" in2="BackgroundImageFix" mode="normal" result="shape"/><feColorMatrix in="SourceAlpha" result="hardAlpha" type="matrix" values="0 0 0 0 0 0 0 0 0 0 0 0 0 0 0 0 0 0 127 0"/><feOffset dx=".2" dy="-.2"/><feGaussianBlur stdDeviation=".25"/><feComposite in2="hardAlpha" k2="-1" k3="1" operator="arithmetic"/><feColorMatrix type="matrix" values="0 0 0 0 0.725 0 0 0 0 0.117813 0 0 0 0 0.394506 0 0 0 1 0"/><feBlend in2="shape" mode="normal" result="effect1_innerShadow_18_15793"/></filter><filter id="o" color-interpolation-filters="sRGB" filterUnits="userSpaceOnUse" height="2.17998" width="2.17998" x="14.0275" y="14.833"><feFlood flood-opacity="0" result="BackgroundImageFix"/><feBlend in="SourceGraphic" in2="BackgroundImageFix" mode="normal" result="shape"/><feColorMatrix in="SourceAlpha" result="hardAlpha" type="matrix" values="0 0 0 0 0 0 0 0 0 0 0 0 0 0 0 0 0 0 127 0"/><feOffset dx=".2" dy="-.2"/><feGaussianBlur stdDeviation=".25"/><feComposite in2="hardAlpha" k2="-1" k3="1" operator="arithmetic"/><feColorMatrix type="matrix" values="0 0 0 0 0.725 0 0 0 0 0.117813 0 0 0 0 0.394506 0 0 0 1 0"/><feBlend in2="shape" mode="normal" result="effect1_innerShadow_18_15793"/></filter><filter id="p" color-interpolation-filters="sRGB" filterUnits="userSpaceOnUse" height="1.7" width="1.7" x="17.2676" y="11.0729"><feFlood flood-opacity="0" result="BackgroundImageFix"/><feBlend in="SourceGraphic" in2="BackgroundImageFix" mode="normal" result="shape"/><feColorMatrix in="SourceAlpha" result="hardAlpha" type="matrix" values="0 0 0 0 0 0 0 0 0 0 0 0 0 0 0 0 0 0 127 0"/><feOffset dx=".2" dy="-.2"/><feGaussianBlur stdDeviation=".25"/><feComposite in2="hardAlpha" k2="-1" k3="1" operator="arithmetic"/><feColorMatrix type="matrix" values="0 0 0 0 0.725 0 0 0 0 0.117813 0 0 0 0 0.394506 0 0 0 1 0"/><feBlend in2="shape" mode="normal" result="effect1_innerShadow_18_15793"/></filter><filter id="q" color-interpolation-filters="sRGB" filterUnits="userSpaceOnUse" height="1.7" width="1.7" x="17.2676" y="14.0729"><feFlood flood-opacity="0" result="BackgroundImageFix"/><feBlend in="SourceGraphic" in2="BackgroundImageFix" mode="normal" result="shape"/><feColorMatrix in="SourceAlpha" result="hardAlpha" type="matrix" values="0 0 0 0 0 0 0 0 0 0 0 0 0 0 0 0 0 0 127 0"/><feOffset dx=".2" dy="-.2"/><feGaussianBlur stdDeviation=".25"/><feComposite in2="hardAlpha" k2="-1" k3="1" operator="arithmetic"/><feColorMatrix type="matrix" values="0 0 0 0 0.725 0 0 0 0 0.117813 0 0 0 0 0.394506 0 0 0 1 0"/><feBlend in2="shape" mode="normal" result="effect1_innerShadow_18_15793"/></filter><linearGradient id="r" gradientUnits="userSpaceOnUse" x1="5.28099" x2="28.0357" y1="25.7988" y2="3.21744"><stop offset="0" stop-color="#ff8684"/><stop offset=".813473" stop-color="#cbecf3"/><stop offset=".959812" stop-color="#81eaff"/></linearGradient><linearGradient id="s" gradientUnits="userSpaceOnUse" x1="14.156" x2="6.27716" y1="17.039" y2="25.7433"><stop offset="0" stop-color="#f4c0c2"/><stop offset="1" stop-color="#e77980"/></linearGradient><linearGradient id="t"><stop offset="0" stop-color="#eecdcf"/><stop offset="1" stop-color="#d5a5ae"/></linearGradient><linearGradient id="u" gradientUnits="userSpaceOnUse" x1="12.0763" x2="11.0126" xlink:href="#t" y1="13.9852" y2="15.1603"/><linearGradient id="v" gradientUnits="userSpaceOnUse" x1="17.0444" x2="16.0415" xlink:href="#t" y1="19.0159" y2="20.1239"/><linearGradient id="w" gradientUnits="userSpaceOnUse" x1="15.9567" x2="14.1686" xlink:href="#t" y1="15.1189" y2="17.0944"/><linearGradient id="x" gradientUnits="userSpaceOnUse" x1="15.0189" x2="14.0645" y1="12.0404" y2="13.0948"><stop offset="0" stop-color="#ead6d8"/><stop offset="1" stop-color="#d0b2bb"/></linearGradient><linearGradient id="y" gradientUnits="userSpaceOnUse" x1="21.0165" x2="20.0667" y1="10.0427" y2="11.092"><stop offset="0" stop-color="#deeaec"/><stop offset="1" stop-color="#c4c3cf"/></linearGradient><linearGradient id="z" gradientUnits="userSpaceOnUse" x1="18.7575" x2="17.3488" y1="11.3106" y2="12.8669"><stop offset="0" stop-color="#dfdde0"/><stop offset="1" stop-color="#cbbac5"/></linearGradient><linearGradient id="A" gradientUnits="userSpaceOnUse" x1="18.7575" x2="17.3488" y1="14.3106" y2="15.8669"><stop offset="0" stop-color="#e9dadb"/><stop offset="1" stop-color="#d2b2bf"/></linearGradient><linearGradient id="B"><stop offset="0" stop-color="#ee3124"/><stop offset="1" stop-color="#c51071"/></linearGradient><radialGradient id="C" cx="0" cy="0" gradientTransform="matrix(-4.75001156 4.62499486 -6.72621248 -6.9080265 12.75 19.0924)" gradientUnits="userSpaceOnUse" r="1" xlink:href="#B"/><radialGradient id="D" cx="0" cy="0" gradientTransform="matrix(-.55036664 .55169383 -.80233568 -.80040553 20.7908 10.3299)" gradientUnits="userSpaceOnUse" r="1" xlink:href="#B"/><radialGradient id="E" cx="0" cy="0" gradientTransform="matrix(-.55036664 .55169383 -.80233568 -.80040553 14.7908 12.3299)" gradientUnits="userSpaceOnUse" r="1" xlink:href="#B"/><radialGradient id="F" cx="0" cy="0" gradientTransform="matrix(-.55036664 .55169383 -.80233568 -.80040553 16.7908 19.3299)" gradientUnits="userSpaceOnUse" r="1" xlink:href="#B"/><radialGradient id="G" cx="0" cy="0" gradientTransform="matrix(-.55036664 .55169383 -.80233568 -.80040553 11.7908 14.3299)" gradientUnits="userSpaceOnUse" r="1" xlink:href="#B"/><radialGradient id="H" cx="0" cy="0" gradientTransform="matrix(-1.08972278 1.0923506 -1.58862903 -1.58480733 15.5585 15.6407)" gradientUnits="userSpaceOnUse" r="1" xlink:href="#B"/><radialGradient id="I" cx="0" cy="0" gradientTransform="matrix(-.8255482 .82753898 -1.20350706 -1.20061183 18.4274 11.7334)" gradientUnits="userSpaceOnUse" r="1" xlink:href="#B"/><radialGradient id="J" cx="0" cy="0" gradientTransform="matrix(-.8255482 .82753898 -1.20350706 -1.20061183 18.4274 14.7334)" gradientUnits="userSpaceOnUse" r="1" xlink:href="#B"/><g filter="url(#a)"><path d="m27.1475 3.12293-4.41 3.41v-1.03c0-.53-.64-.8-1.02-.42l-3.94 3.94v-1.39c0-.53-.64-.8-1.02-.42l-4.64 4.63997v-1.39c0-.52997-.64-.79997-1.02-.42l-6.05 6.05c-2.73 2.73-2.73 7.17 0 9.9s7.17 2.73 9.9 0l6.06-6.06c.37-.37.11-1.02-.42-1.02h-1.39l4.64-4.64c.37-.37.11-1.02-.42-1.02h-1.39l3.93-3.92997c.37-.37.11-1.02-.42-1.02h-1.03l3.4-4.4c.41-.52-.25-1.18-.76-.78z" fill="url(#r)"/></g><g filter="url(#b)"><path d="m10.0176 26.343c2.9381 0 5.32-2.3818 5.32-5.32 0-2.9381-2.3819-5.32-5.32-5.32-2.93818 0-5.32003 2.3819-5.32003 5.32 0 2.9382 2.38185 5.32 5.32003 5.32z" fill="url(#s)"/></g><g filter="url(#c)"><path d="m11.5176 15.2413c.3967 0 .7183-.3216.7183-.7182 0-.3967-.3216-.7183-.7183-.7183s-.7182.3216-.7182.7183c0 .3966.3215.7182.7182.7182z" fill="url(#u)"/></g><g filter="url(#d)"><path d="m16.5176 20.2003c.374 0 .6772-.3032.6772-.6773 0-.374-.3032-.6772-.6772-.6772s-.6772.3032-.6772.6772c0 .3741.3032.6773.6772.6773z" fill="url(#v)"/></g><g filter="url(#e)"><path d="m15.0175 17.2305c.6668 0 1.2074-.5406 1.2074-1.2074 0-.6669-.5406-1.2074-1.2074-1.2074-.6669 0-1.2074.5405-1.2074 1.2074 0 .6668.5405 1.2074 1.2074 1.2074z" fill="url(#w)"/></g><g filter="url(#f)"><path d="m14.5176 13.1674c.3559 0 .6444-.2885.6444-.6444s-.2885-.6445-.6444-.6445c-.356 0-.6445.2886-.6445.6445s.2885.6444.6445.6444z" fill="url(#x)"/></g><g filter="url(#g)"><path d="m20.5176 11.1643c.3542 0 .6413-.2871.6413-.6413 0-.3543-.2871-.64141-.6413-.64141s-.6414.28711-.6414.64141c0 .3542.2872.6413.6414.6413z" fill="url(#y)"/></g><g filter="url(#h)"><path d="m18.0176 12.9741c.5253 0 .9512-.4258.9512-.9512 0-.5253-.4259-.9511-.9512-.9511s-.9512.4258-.9512.9511c0 .5254.4259.9512.9512.9512z" fill="url(#z)"/></g><g filter="url(#i)"><path d="m18.0176 15.9741c.5253 0 .9512-.4258.9512-.9512 0-.5253-.4259-.9511-.9512-.9511s-.9512.4258-.9512.9511c0 .5254.4259.9512.9512.9512z" fill="url(#A)"/></g><g filter="url(#j)"><path d="m10.0176 26.0229c2.7614 0 5-2.2385 5-5 0-2.7614-2.2386-5-5-5-2.76145 0-5.00002 2.2386-5.00002 5 0 2.7615 2.23857 5 5.00002 5z" fill="url(#C)"/></g><g filter="url(#k)"><path d="m20.5176 11.0229c.2761 0 .5-.2238.5-.5 0-.2761-.2239-.5-.5-.5-.2762 0-.5.2239-.5.5 0 .2762.2238.5.5.5z" fill="url(#D)"/></g><g filter="url(#l)"><path d="m14.5176 13.0229c.2761 0 .5-.2238.5-.5 0-.2761-.2239-.5-.5-.5-.2762 0-.5.2239-.5.5 0 .2762.2238.5.5.5z" fill="url(#E)"/></g><g filter="url(#m)"><path d="m16.5176 20.0229c.2761 0 .5-.2238.5-.5 0-.2761-.2239-.5-.5-.5-.2762 0-.5.2239-.5.5 0 .2762.2238.5.5.5z" fill="url(#F)"/></g><g filter="url(#n)"><path d="m11.5176 15.0229c.2761 0 .5-.2238.5-.5 0-.2761-.2239-.5-.5-.5-.2762 0-.5.2239-.5.5 0 .2762.2238.5.5.5z" fill="url(#G)"/></g><g filter="url(#o)"><path d="m15.0175 17.013c.5467 0 .99-.4433.99-.99 0-.5468-.4433-.99-.99-.99-.5468 0-.99.4432-.99.99 0 .5467.4432.99.99.99z" fill="url(#H)"/></g><g filter="url(#p)"><path d="m18.0176 12.7729c.4142 0 .75-.3357.75-.75 0-.4142-.3358-.75-.75-.75s-.75.3358-.75.75c0 .4143.3358.75.75.75z" fill="url(#I)"/></g><g filter="url(#q)"><path d="m18.0176 15.7729c.4142 0 .75-.3357.75-.75 0-.4142-.3358-.75-.75-.75s-.75.3358-.75.75c0 .4143.3358.75.75.75z" fill="url(#J)"/></g></svg>